# xmcd
#
# Track frame offsets: 
#        150
#        14708
#        28865
#        42925
#        58229
#        80639
#        99529
#        118609
#        139025
#        155906
#        170493
#        189452
#
# Disc length: 2769 seconds
#
# Revision: 0
# Processed by: cddbd v1.5.2PL0 Copyright (c) Steve Scherf et al.
# Submitted via: ExactAudioCopyFreeDBPlugin 1.0
#
DISCID=ab0acf0c
DTITLE=Daniel Kemish - Fools and Money
DYEAR=2016
DGENRE=Country
TTITLE0=Lawless
TTITLE1=In the Fast Lane
TTITLE2=Life on th run
TTITLE3=Trouble Girl
TTITLE4=Wandering Man
TTITLE5=1000 Miles of Rail
TTITLE6=Honest Man
TTITLE7=Midnight Train
TTITLE8=Empty Streets
TTITLE9=Protection from the Law
TTITLE10=The Name of the Game
TTITLE11=Bonus Track
EXTD=
EXTT0=
EXTT1=
EXTT2=
EXTT3=
EXTT4=
EXTT5=
EXTT6=
EXTT7=
EXTT8=
EXTT9=
EXTT10=
EXTT11=
PLAYORDER=
